HIERARCHY
ROOT hip
{
  OFFSET 0 0 0
  CHANNELS 6 Xposition Yposition Zposition Zrotation Yrotation Xrotation
  JOINT abdomen
  {
    OFFSET 0 20.6881 -0.73152
    CHANNELS 3 Zrotation Xrotation Yrotation
    JOINT chest
    {
      OFFSET 0 11.7043 -0.48768
      CHANNELS 3 Zrotation Xrotation Yrotation
      JOINT neck
      {
        OFFSET 0 22.1894 -2.19456
        CHANNELS 3 Zrotation Xrotation Yrotation
        JOINT head
        {
          OFFSET -0.24384 7.07133 1.2192
          CHANNELS 3 Zrotation Xrotation Yrotation
          JOINT leftEye
          {
            OFFSET 4.14528 8.04674 8.04672
            CHANNELS 3 Zrotation Xrotation Yrotation
            End Site
            {
              OFFSET 1 0 0
            }
          }
          JOINT rightEye
          {
            OFFSET -3.6576 8.04674 8.04672
            CHANNELS 3 Zrotation Xrotation Yrotation
            End Site
            {
              OFFSET 1 0 0
            }
          }
        }
      }
      JOINT rCollar
      {
        OFFSET -2.68224 19.2634 -4.8768
        CHANNELS 3 Zrotation Xrotation Yrotation
        JOINT rShldr
        {
          OFFSET -8.77824 -1.95073 1.46304
          CHANNELS 3 Zrotation Xrotation Yrotation
          JOINT rForeArm
          {
            OFFSET -28.1742 -1.7115 0.48768
            CHANNELS 3 Zrotation Xrotation Yrotation
            JOINT rHand
            {
              OFFSET -22.5879 0.773209 7.07136
              CHANNELS 3 Zrotation Xrotation Yrotation
              JOINT rThumb1
              {
                OFFSET -1.2192 -0.487915 3.41376
                CHANNELS 3 Zrotation Xrotation Yrotation
                JOINT rThumb2
                {
                  OFFSET -3.37035 -0.52449 3.41376
                  CHANNELS 3 Zrotation Xrotation Yrotation
                  End Site
                  {
                    OFFSET -1.78271 -1.18214 1.43049
                  }
                }
              }
              JOINT rIndex1
              {
                OFFSET -7.75947 0.938293 5.60832
                CHANNELS 3 Zrotation Xrotation Yrotation
                JOINT rIndex2
                {
                  OFFSET -2.54057 -0.884171 1.56538
                  CHANNELS 3 Zrotation Xrotation Yrotation
                  End Site
                  {
                    OFFSET -1.62519 -0.234802 1.16502
                  }
                }
              }
              JOINT rMid1
              {
                OFFSET -8.24714 1.18213 3.41376
                CHANNELS 3 Zrotation Xrotation Yrotation
                JOINT rMid2
                {
                  OFFSET -3.10165 -0.590103 1.0647
                  CHANNELS 3 Zrotation Xrotation Yrotation
                  End Site
                  {
                    OFFSET -2.48547 -0.328903 0.83742
                  }
                }
              }
              JOINT rRing1
              {
                OFFSET -8.82822 0.546677 1.51678
                CHANNELS 3 Zrotation Xrotation Yrotation
                JOINT rRing2
                {
                  OFFSET -2.60934 -0.819778 -0.0198488
                  CHANNELS 3 Zrotation Xrotation Yrotation
                  End Site
                  {
                    OFFSET -2.33842 -0.294052 0.168128
                  }
                }
              }
              JOINT rPinky1
              {
                OFFSET -8.27202 -0.0477905 -0.4584
                CHANNELS 3 Zrotation Xrotation Yrotation
                JOINT rPinky2
                {
                  OFFSET -1.82734 -0.647385 -0.700984
                  CHANNELS 3 Zrotation Xrotation Yrotation
                  End Site
                  {
                    OFFSET -1.69225 -0.51767 -0.607171
                  }
                }
              }
            }
          }
        }
      }
      JOINT lCollar
      {
        OFFSET 2.68224 19.2634 -4.8768
        CHANNELS 3 Zrotation Xrotation Yrotation
        JOINT lShldr
        {
          OFFSET 8.77824 -1.95073 1.46304
          CHANNELS 3 Zrotation Xrotation Yrotation
          JOINT lForeArm
          {
            OFFSET 28.1742 -1.7115 0.48768
            CHANNELS 3 Zrotation Xrotation Yrotation
            JOINT lHand
            {
              OFFSET 22.5879 0.773209 7.07136
              CHANNELS 3 Zrotation Xrotation Yrotation
              JOINT lThumb1
              {
                OFFSET 1.2192 -0.487915 3.41376
                CHANNELS 3 Zrotation Xrotation Yrotation
                JOINT lThumb2
                {
                  OFFSET 3.37035 -0.52449 3.41376
                  CHANNELS 3 Zrotation Xrotation Yrotation
                  End Site
                  {
                    OFFSET 1.78271 -1.18214 1.43049
                  }
                }
              }
              JOINT lIndex1
              {
                OFFSET 7.75947 0.938293 5.60832
                CHANNELS 3 Zrotation Xrotation Yrotation
                JOINT lIndex2
                {
                  OFFSET 2.54057 -0.884171 1.56538
                  CHANNELS 3 Zrotation Xrotation Yrotation
                  End Site
                  {
                    OFFSET 1.62519 -0.234802 1.16502
                  }
                }
              }
              JOINT lMid1
              {
                OFFSET 8.24714 1.18213 3.41376
                CHANNELS 3 Zrotation Xrotation Yrotation
                JOINT lMid2
                {
                  OFFSET 3.10165 -0.590103 1.0647
                  CHANNELS 3 Zrotation Xrotation Yrotation
                  End Site
                  {
                    OFFSET 2.48547 -0.328903 0.83742
                  }
                }
              }
              JOINT lRing1
              {
                OFFSET 8.82822 0.546677 1.51678
                CHANNELS 3 Zrotation Xrotation Yrotation
                JOINT lRing2
                {
                  OFFSET 2.60934 -0.819778 -0.0198488
                  CHANNELS 3 Zrotation Xrotation Yrotation
                  End Site
                  {
                    OFFSET 2.33842 -0.294052 0.168128
                  }
                }
              }
              JOINT lPinky1
              {
                OFFSET 8.27202 -0.0477905 -0.4584
                CHANNELS 3 Zrotation Xrotation Yrotation
                JOINT lPinky2
                {
                  OFFSET 1.82734 -0.647385 -0.700984
                  CHANNELS 3 Zrotation Xrotation Yrotation
                  End Site
                  {
                    OFFSET 1.69225 -0.51767 -0.607171
                  }
                }
              }
            }
          }
        }
      }
    }
  }
  JOINT rButtock
  {
    OFFSET -8.77824 4.35084 1.2192
    CHANNELS 3 Zrotation Xrotation Yrotation
    JOINT rThigh
    {
      OFFSET 0 -1.70687 -2.19456
      CHANNELS 3 Zrotation Xrotation Yrotation
      JOINT rShin
      {
        OFFSET 0 -36.8199 0.73152
        CHANNELS 3 Zrotation Xrotation Yrotation
        JOINT rFoot
        {
          OFFSET 0.73152 -45.1104 -5.12064
          CHANNELS 3 Zrotation Xrotation Yrotation
          End Site
          {
            OFFSET -1.1221 -3.69964 12.103
          }
        }
      }
    }
  }
  JOINT lButtock
  {
    OFFSET 8.77824 4.35084 1.2192
    CHANNELS 3 Zrotation Xrotation Yrotation
    JOINT lThigh
    {
      OFFSET 0 -1.70687 -2.19456
      CHANNELS 3 Zrotation Xrotation Yrotation
      JOINT lShin
      {
        OFFSET 0 -36.8199 0.73152
        CHANNELS 3 Zrotation Xrotation Yrotation
        JOINT lFoot
        {
          OFFSET -0.73152 -45.1104 -5.12064
          CHANNELS 3 Zrotation Xrotation Yrotation
          End Site
          {
            OFFSET 1.1221 -3.69964 12.103
          }
        }
      }
    }
  }
}
MOTION
Frames:	4
Frame Time:	0.03333
-68.82992899045348 59.4494104385376 57.73653406649828 11.65517994122962 -63.349997721679095 -5.470378334099137 -17.13589277842981 25.828264723754838 2.3955891733087724 2.0595573130790736 -13.889005262113338 0.7824595877666378 -13.320105999538283 15.591523827840104 -14.50079213626055 19.493055947798325 -27.646515722325592 -22.02607087508528 -0.40715032450838395 0.020510097582196258 -0.3492473691391744 -0.24972612348594667 -0.5990083372620587 -0.21724435847515766 2.7981720489335484 -0.04986667752173419 -0.10328783484633193 27.50354961771347 12.206398405364453 24.191249379715785 -23.37710107593402 -26.223327987990253 60.71111315470965 -1.786172374803555 -28.704102213410366 -7.340342829310173 1.2946005653082695 -0.3474860341069574 -0.17616258488652925 1.5829013560706269 0.5983319884516688 0.07399949676753463 0.7247703692936821 -1.1526511983871275 0.784428923403423 8.652703914172886 4.315737843116243 0.7038650812349772 0.2758128570820468 0.42714124767237993 -0.26437028919029204 4.959563427112693 0.510539138098705 1.7173870337762374 -2.355853907481989 -0.9148865504068714 -0.9373552047335688 9.066852434496608 2.3675433493596425 1.3089946553755425 -0.679094332992868 -0.32984605671919454 1.6779303116015432 2.451289152546815 0.9638372355278834 0.8098099063591904 -1.0332745394558198 -0.4627832024739163 0.5878963131735355 -110.5718219448829 44.41153264391829 49.79210978524422 26.24196245159334 -42.86891734439799 -91.04850484396682 5.845442377557931 -58.16928557584608 15.420888626900261 -0.389196665346903 -0.5931162852467178 -2.159102197590132 -0.3895768080628965 -0.8411912638616668 -1.4097095299470828 1.747395149729571 0.5062758727570006 0.7014286246919866 -8.315774097510742 4.21806741864553 0.7159174302731407 -0.8324540111701925 0.8322868316180858 -1.2991638787257784 -2.614591078195592 -0.39670965999050545 -0.7553361061597239 0.4987558344808165 0.4524492329813928 1.2303411851014374 -12.187668319112985 -1.172479450991086 0.6985221657567346 0.07088611778498563 0.8927644214588464 -0.2170025804507098 -2.758647451753977 -1.1994002147178682 1.5547917125414392 -0.46519511302457706 -0.5797620914805793 0.2252525685140125 -92.52661242187095 -53.273665525969406 -78.07865862902962 -62.00756502144811 90.9479029876817 60.955989096832944 -2.1495924398313586 -1.0002865400336565 -3.888477920907034 0.2062526631099031 0.7574920446990678 -1.3051833030969695 29.280068160455446 -22.887026465249143 20.726214159045572 5.17673227998101 76.87490608970657 -9.31336506069977 18.108499763408577 -21.25030823443899 33.18262651633646
-71.68124904856086 58.357757329940796 55.68420682102442 14.221579125632307 -63.73569167392055 -5.403420709005032 -17.106999370693362 24.08603714574091 2.771973791154907 1.892800378927328 -13.538546548252691 1.7291391212951848 -13.366591413255744 15.157572881565223 -16.14805959424379 19.871851408978063 -27.41854620594537 -23.405374644003288 -0.87834461146048 0.4867012442868316 -0.763828325814724 0.2043085671565353 -0.5946976341221344 -0.2531882289823498 2.1560081218961162 -0.34185000746378613 -0.21685509105331985 28.640554133372568 7.201401413666481 20.6684222209308 -21.495209789771675 -19.97183684069059 50.337449164050966 -2.020095041375679 -20.00982806040149 -6.397886006875134 1.0322871502339297 -0.4719999557894667 -0.29907269277455495 1.26656029088784 0.8760601799873753 0.1921607021916974 0.5297473375920734 -1.059411005366814 0.8986787249498427 8.317054757980118 4.014833005457685 0.3190466738677581 -0.021176147747978283 0.007049182110276285 0.19257390195605673 5.185357101355444 0.4416235965903341 2.1913714263238573 -2.4038833708386953 -0.689538919533434 -0.9268294563357561 9.042122027059285 1.782313104479086 1.38301469607144 -1.2687676159285177 -0.3492209555169935 1.6083985589639902 2.530112950663347 0.31656475387810473 -0.13382715142008617 0.22298764043263924 -0.3137638427098706 0.320306576965361 -113.21327466298027 38.4207771379947 54.62112524542952 25.780217758038383 -43.35503556800614 -90.2850058079753 6.5021829955012285 -60.530215594541865 15.186053062856883 -0.5662279115576403 -0.3090237447867346 -2.3180099637250637 -0.22127422344631809 -1.3394928374018245 -1.067666889804361 1.4787957194629981 0.45840072898685397 0.4781597725646133 -8.818050841147848 4.593027301719482 0.587425350285922 -1.1802799539100637 1.4501602580894255 -1.2230066291499015 -1.8798810761122489 -0.5608241647071025 -0.012548351505996024 0.01543713465872796 0.3634134482820453 0.5725051222091465 -11.786593634634313 -0.9061108245404629 -0.07145615843620402 -0.12800642952484692 0.41533953456024414 -0.02557222825252774 -2.8478932647703026 -0.8508294078324953 0.8398224512633139 -0.1860235104181765 -0.6217806682025573 -0.2617860230847942 -92.92172520497785 -51.636093521513 -80.04693473271969 -48.7572200127714 89.13215183834718 48.11710151394697 -0.918812308354042 -0.9487064455256011 -2.7788596890553374 0.6901820245324731 -0.06220313308090114 -1.1334206940572509 28.952024419903488 -21.023590350224172 21.432875775858843 3.3876346632219856 75.01120018220938 -7.854047333202356 18.641985348910765 -21.925590254657934 35.15546177129753
-74.20503040775657 57.70609974861145 52.73228008300066 15.16695073129565 -64.97293946093333 -5.205258138162745 -15.947892362880104 22.85456769876595 2.811034575801152 2.073172441415848 -13.48956726171453 2.3636544104009665 -12.97166475280373 14.994857284968008 -16.705324483341375 19.804755045666443 -26.69734311638914 -23.84649558135939 -1.3625221008489918 0.7979525378774895 -0.8780529943994323 0.4210155284822305 -0.794764120195563 -0.3183166440393601 1.1100203592390814 -0.5314697192016802 -0.03750286785535412 30.96375077199861 5.082242162342584 16.286750000435486 -20.468516244302865 -16.6268524399671 45.221439400225485 -3.065560081117796 -17.66572421272604 -7.051046751919698 0.9224508781909547 -0.549511076924887 -0.24428689166823644 1.0471071666289766 0.8869977674477987 0.32837836646043517 0.049280882078699816 -0.9498889220256596 1.042884508896322 8.059120347937403 4.043431007512528 0.0697114719900889 -0.3265801590788706 -0.21798420670048757 0.5911237376389252 5.3582889534037035 0.4449035814958212 2.3526550310728953 -2.221422124237798 -0.6563155987500227 -0.8433756437356015 9.278286062896232 1.3532615382732183 1.225985658845085 -1.3772365694770208 -0.7657961139867753 1.452882408638793 2.5424294892841726 -0.16367417095854275 -0.9001179738740114 1.0136879047937504 -0.26789133174871294 0.24515571307500322 -111.90065573847639 32.89644159011293 54.23374082136849 25.629359369840312 -43.195390141440846 -88.20241965833587 6.148791569165708 -59.80467191976809 13.63276388521114 -0.6566848024911736 -0.17883222835665222 -2.237094420175215 -0.19035939988066522 -1.0820151962598539 -1.0767166770112164 1.1701503564841116 0.41608599953133246 0.2428845150934153 -8.949470510968062 4.593720139033415 0.5164577638187855 -1.075019054837351 1.7775158570825043 -0.8991842656701294 -1.4472280792230803 -0.336552341988795 0.5098962465430775 -0.39436236943269537 0.3187179710139513 0.001564700289314718 -11.359533495458326 -0.5112402463448362 -0.5188314146379236 -0.35529923690892307 -0.1570072659983756 0.03413258971666935 -2.879868368482894 -0.53032320791647 0.11963108347789068 0.5002542605908409 -0.4483057093935751 -0.7014038652562453 -91.82651803194463 -49.91791845466127 -81.44083290834674 -38.317631036243746 87.61739346535677 38.212159255080415 -0.20765706739713408 -1.595531549784744 -3.2273706776499833 1.04034816083672 -0.6654619691006102 -0.8621928148989866 28.99255817753293 -19.870736380596057 22.869734133817964 1.9323347945038312 74.11529109896797 -6.468666830357153 18.78497535918498 -21.652700291653826 35.18617371690049
-76.88418058678508 57.45710730552673 49.38290659338236 15.875675065238267 -64.84122609297881 -5.161595727006615 -14.628724994509474 21.693732653092678 3.036580015356255 2.5316623363878823 -13.631635196450796 2.6808620558346985 -12.633766756826736 14.854613010740136 -17.022544081606156 19.527906988038318 -25.656227626487848 -24.769933742050533 -1.7413408273605895 0.7796864776027598 -0.7759574611201973 0.37088151308751377 -0.9162900475596032 -0.38848232360925483 0.05060078945537833 -0.5892104308976754 0.22876053766347518 31.714163165540402 2.5530606787272974 13.628564172645229 -19.766034703261642 -14.630844060699472 42.166063558047 -3.6022541479825954 -16.553060783721573 -7.435777647488177 0.7622987369666114 -0.6233689006279968 -0.3283571288409846 0.9062678121696673 0.7725869762082076 0.46970501222834243 -0.4697304653551713 -0.7920351394570255 1.2938226707948286 7.78908881910095 4.358245525415818 -0.15865248781470243 -0.6996284429588652 -0.384930251714878 0.9129494447252323 5.418090247794927 0.36100954185931816 2.158370086688471 -1.9314007661348318 -0.42390560563564506 -0.6872492586967459 9.652139882211465 1.1320539091713078 1.1294458441254207 -1.21913604632462 -1.2641418703131266 1.2899503804222543 2.6960109885269636 -0.5303076265474259 -1.2917200397475224 1.351394868917395 -0.3398690391610709 0.23431172055055016 -108.79809011932228 29.256633781413132 52.92965963332713 25.78102030526586 -42.56608041697797 -85.59158667828767 5.833081015820678 -59.05674571508418 12.009939112946437 -0.7375000276375876 -0.4408781988363036 -1.9497718405680506 -0.19386093904735457 -0.3109816078401482 -1.1650666680292123 0.7930116430649258 0.3266941912214981 -0.11123768812244415 -8.816829091060061 4.2955849430832975 0.3752256734822006 -0.9867228515590689 1.7157242028784565 -0.4789146151896055 -1.3384419487649946 -0.013634658408932172 0.7610504131740857 -0.5439279308869305 0.2243456741387082 -0.4493080396542745 -10.97943261437347 -0.04454676057108761 -0.8619472482539835 -0.35122108036589655 -0.6758587443169861 0.15640898411576482 -2.7573921910505756 -0.34850101088979185 -0.3442798472610182 1.141255134478667 -0.1387918451730392 -1.174389342637751 -90.69792489424842 -48.901927815621875 -83.18152027870282 -29.43918766245465 86.39465983033026 29.51623561138698 0.14844338271794322 -1.6716762061993387 -3.1700476747104163 1.120142272702217 -0.9264645748236893 -0.6347545591701436 27.713791378102925 -17.829799016968085 23.434887891406916 0.869102298296395 72.47323166022687 -5.11975569569841 18.66623935065348 -21.377320724697253 35.006789043633866
